<?xml version="1.0" encoding="UTF-8"?>
<svg id="Capa_3" data-name="Capa 3" xmlns="http://www.w3.org/2000/svg" viewBox="0 0 527.5 384.39">
  <defs>
    <style>
      .cls-1, .cls-2 {
        fill: #fff;
      }

      .cls-2 {
        stroke: #fff;
        stroke-miterlimit: 10;
      }
    </style>
  </defs>
  <g>
    <path class="cls-2" d="M115.09,131.87c-2.41,0-3.59-1.66-3.59-3.8l-.08-82.05-38.55,55.09c-2.57,3.11-6.72,2.75-9.46-.17L24.5,45.72l-.14,82.26c0,2.58-1.79,3.99-4.16,3.89H4.08c-1.92,0-3.58-1.35-3.58-3.5V6.91S1.9,3.15,3.93,2.87h18.34c1.28.27,2.66.64,3.43,1.78l41.02,60.52c.48.71.98.93,1.5.93s1.01-.23,1.5-.93L111.03,5.59c1.14-1.64,4.46-1.72,4.46-1.72l16.58.04c1.85,0,3.42,1.45,3.42,3.61v121.15c0,1.85-1.34,3.2-2.9,3.2h-17.5Z"/>
    <path class="cls-2" d="M290.57,127.7L235.56,5.84c-.85-1.87-1.89-2.98-4.01-2.97l-16.82.07c-2.84.02-3.69,2.38-4.77,4.73l-55.06,119.86c-.65,1.4-.42,2.56.34,3.44.45.52,1.56.9,2.63.9l20.78-.02c1.16,0,2.34-.82,2.79-1.83l10.11-23.15,62.33.08,9.54,21.88c.77,1.77,2.05,2.99,4.14,3.05l20.2-.02c2.08,0,3.74-2.09,2.8-4.15ZM201.14,85.13l21.48-49.81,21.67,49.56-43.15.26Z"/>
    <path class="cls-2" d="M405.89,99.97c-3.44,30.95-37.79,37.15-65.18,33.08-13.96-2.07-26.57-7.73-36.96-17.11-1.03-.93-1.84-1.37-1.87-2.63s.46-2.06,1.35-3.08l11.28-12.82c.64-.73,1.43-1.18,2.15-1.1s1.58.38,2.37,1.16c13.33,13.17,33.21,18.42,51.13,12.69,8.24-2.64,12.6-11.46,9.27-19.02-7.06-16.05-55.66-8.91-69.95-32.63-8.39-13.92-6.39-32.81,4.94-44.63,14.95-15.59,45.16-15.77,65.73-9.64,7.25,2.16,22.5,9.99,23,13.29.17,1.13-.2,2.2-.99,3.17l-10.49,12.94c-1.11,1.37-2.91,1.91-4.41.65-11.93-10.05-27.69-14.15-43.05-10.97-9.31,1.93-15.46,9-13.56,17.58,2.07,9.35,15.1,11.68,25.07,13.83,9.55,2.05,18.77,3.86,27.83,7.41,17.1,6.7,24.36,19.53,22.33,37.82Z"/>
    <path class="cls-2" d="M457.3,132.25c-12.87-2.51-23.79-8.21-33.24-16.62-1.66-1.47-1.74-3.17-.28-4.87l11.13-12.96c.73-.86,1.65-1.48,2.59-1.49,3.4-.06,12.25,14.88,36.08,15.98,6.41.29,12.45-.05,18.29-2.51,7.27-3.06,11.36-10.82,8.42-18.3-3.12-7.93-15.46-9.83-23.91-11.93l-25.03-6.23c-7.34-1.83-13.97-5.93-18.86-11.8-6.41-7.7-7.96-17.8-6.69-27.59,2.59-20.07,19.25-30.55,38.43-32.76,21.04-2.42,42.02,1.59,58.58,15,1.04.84,1.35,2.67.54,3.7l-10.36,13.11c-.74.94-1.76,1.77-2.56,1.91-1.27.22-2.17-.35-3.22-1.19-11.9-9.57-27.29-13.52-42.3-10.38-9.61,2.01-15.62,9.63-13.18,18.41,5.08,18.27,58.72,9.18,71.69,36.54,5.09,10.73,4.69,23.66-.64,34.27-10.98,21.86-42.33,24.22-65.46,19.71Z"/>
  </g>
  <g>
    <path class="cls-2" d="M505.01,304.87h-82.81c-1.66,0-2.7,1.59-2.71,2.99l-.02,38.42c0,1.67.97,3.59,2.98,3.59l96.56.05c3.29,0,5.47,2.29,5.47,5.4v23.49c0,2.97-2.4,5.07-5.59,5.07l-131.21-.03c-2.8,0-5.19-2.06-5.19-5.05l-.06-180.35c0-3.4,2.18-5.57,5.39-5.57h130.99c2.78-.01,5.67,1.87,5.68,4.64l.1,24.24c0,2.31-1.93,5.11-4.65,5.12l-100.45.3-.12,41.67c0,1.79,1.89,3.07,3.65,3.03l82.44.02c3.36,0,5.04,3.12,5.03,5.89l-.03,21.32c0,2.78-1.75,5.77-5.46,5.76Z"/>
    <path class="cls-2" d="M267.5,228.3v-.43l-44.76-.22c-2.94-.02-4.97-2.2-5.24-4.95v-23.45c0-3.1,2.33-5.37,5.64-5.37l96.36.03c-3.36.16-6.79,1.4-10.01,3.52-14.9,9.81-28.79,20.09-41.99,30.88Z"/>
    <path class="cls-2" d="M266.47,288.08c11.75-14.51,24.03-28.62,37.03-42.3l-.03,132.81c0,2.77-1.92,5.28-4.95,5.28l-26.75.02c-2.75,0-5.27-1.73-5.27-4.94l-.03-90.87Z"/>
    <path class="cls-2" d="M353.5,198.19v23.66c-.17,3.01-2.18,5.01-5.25,5.02l-26.27.05c2.62-2.55,5.29-5.1,7.98-7.63,6.35-5.97,5.14-16.22-.07-21.67-2.92-3.05-6.36-4.55-9.97-4.74h28.86c2.82,0,4.72,2.94,4.72,5.32Z"/>
    <path class="cls-2" d="M114.69,322.43c.33,2.6-1.07,5.55-4.64,6.44l-49.41-.1c-3.15,0-5.07-2.97-5.06-5.42,0-2.41,1.92-5.48,5.05-5.48l48.01-.1c3.33,0,5.68,1.82,6.05,4.66Z"/>
    <path class="cls-2" d="M127.61,297.53c-.09,2.28-1.85,5.09-4.86,5.32-.14,0-.28.02-.42.02l-62.73-.11c-2.85,0-4.22-3.42-4.27-5.21-.05-2.11,1.12-5.68,4.11-5.68l64.04-.02c.91,0,1.66.33,2.26.85,1.38,1.2,1.94,3.41,1.88,4.82Z"/>
    <path class="cls-2" d="M143.17,271.53c-.11,2.38-2.45,5.34-6.43,5.34l-76.4-.11c-3.47,0-5.15-3.42-5.21-5.21-.07-2.1,1.35-5.67,5.01-5.67l77.99-.02c3.7,0,5.14,3.66,5.04,5.67Z"/>
    <path class="cls-2" d="M184.39,240.81c-16.07-31.19-47.86-50.87-83.07-50.94l-89.71-.18-7.7,9.13c-1.34,1.59-.56,3.48.63,4.95l8.84,10.85-10.96,14.06,10.54,14.52c-3.91,4.65-7.86,8.62-10.37,13.76l10.33,13.81-8.72,11.1c-1.54,1.95-1.47,4.12.03,6.05l8.96,11.54-9.61,12.06c-.9,1.12-.75,2.94.16,4.1l9.62,12.26-10.79,14.65,10.52,13.68-10.8,13.86,10.48,13.79,89.39-.16c23.01-.04,44.22-8.78,60.55-23.32l-21.56-28.37c-10.12,10.21-23.66,16.94-38.94,17.84l-65.54.53-8.85-11.35,7.01-8.96c1.48-1.88,2.05-4,.44-5.98l-8.17-10.03,9.74-13.4c-2.12-5.13-6.26-8.93-9.76-13.63l7.99-10.41c1.17-1.52,1.65-3.72.36-5.34l-8.26-10.36,9.38-12.58-8.87-11.98,9.52-12.5,58.18-.32c32.4-.18,58.87,21.75,63.78,51.86,1.22.79,2.38,1.76,3.46,2.9l25.68,27.13c2.03-2.34,4.05-4.66,6.08-6.96,2.5-19.69-.73-39.67-10-57.67Z"/>
    <path class="cls-2" d="M114.69,322.43c.33,2.6-1.07,5.55-4.64,6.44l-49.41-.1c-3.15,0-5.07-2.97-5.06-5.42,0-2.41,1.92-5.48,5.05-5.48l48.01-.1c3.33,0,5.68,1.82,6.05,4.66Z"/>
    <path class="cls-2" d="M127.61,297.53c-.09,2.28-1.85,5.09-4.86,5.32-.14,0-.28.02-.42.02l-62.73-.11c-2.85,0-4.22-3.42-4.27-5.21-.05-2.11,1.12-5.68,4.11-5.68l64.04-.02c.91,0,1.66.33,2.26.85,1.38,1.2,1.94,3.41,1.88,4.82Z"/>
    <path class="cls-2" d="M143.17,271.53c-.11,2.38-2.45,5.34-6.43,5.34l-76.4-.11c-3.47,0-5.15-3.42-5.21-5.21-.07-2.1,1.35-5.67,5.01-5.67l77.99-.02c3.7,0,5.14,3.66,5.04,5.67Z"/>
    <path class="cls-2" d="M127.61,297.53c-.09,2.28-1.85,5.09-4.86,5.32-.14,0-.28.02-.42.02l-62.73-.11c-2.85,0-4.22-3.42-4.27-5.21-.05-2.11,1.12-5.68,4.11-5.68l64.04-.02c.91,0,1.66.33,2.26.85,1.38,1.2,1.94,3.41,1.88,4.82Z"/>
    <path class="cls-2" d="M110.06,328.87l-49.41-.1c-3.15,0-5.07-2.97-5.06-5.42,0-2.41,1.92-5.48,5.05-5.48l48.01-.1c3.33,0,5.68,1.82,6.05,4.66.33,2.6-1.07,5.55-4.64,6.44Z"/>
    <path class="cls-2" d="M143.17,271.53c-.11,2.38-2.45,5.34-6.43,5.34l-76.4-.11c-3.47,0-5.15-3.42-5.21-5.21-.07-2.1,1.35-5.67,5.01-5.67l77.99-.02c3.7,0,5.14,3.66,5.04,5.67Z"/>
    <g>
      <path class="cls-1" d="M188.76,361.31c-1.8,0-3.46-.82-4.55-2.26l-39.89-52.49c-1.74-2.29-1.5-5.53.56-7.54l2.02-1.97c1.07-1.05,2.49-1.62,3.98-1.62,1.57,0,3.04.63,4.13,1.76l29.44,30.79c1.23,1.28,2.92,2,4.69,2,.09,0,.18,0,.27,0,1.86-.08,3.6-.95,4.78-2.39,25.11-30.86,51-57.8,76.96-80.06,8.61-7.39,17.27-14.29,25.9-20.66-11.76,11.95-23.56,24.98-35.11,38.76-22.13,26.41-43.87,56.01-68.44,93.14-1.07,1.62-2.8,2.54-4.74,2.54Z"/>
      <path class="cls-1" d="M323.77,216.47h0,0M226.75,299.79c-12.2,16.41-24.71,34.32-38.03,54.44l-7.49-9.86-22.23-29.25-9.07-11.93.94-.92,28.33,29.63.57.59c2.46,2.56,5.85,4,9.38,4,.18,0,.36,0,.53-.01,3.72-.15,7.2-1.9,9.55-4.78,9.08-11.16,18.27-21.81,27.52-31.89M151.44,301.7h0,0M318.42,205.02c-.52,0-1.05.12-1.55.43-17.3,10.86-34,23.44-49.96,37.13-28.51,24.45-54.67,52.51-77.77,80.89l-.57-.59-28.87-30.19c-2.4-2.51-5.61-3.77-8.83-3.77s-6.15,1.15-8.52,3.47l-2.02,1.97c-4.41,4.3-4.93,11.22-1.2,16.13l9.49,12.49,22.23,29.25,8.17,10.75c2.45,3.23,6.09,4.83,9.72,4.83,3.89,0,7.77-1.83,10.16-5.46,21.21-32.07,43.49-63.3,68-92.56,11.76-14.04,24.04-27.62,36.97-40.61.62-.65,1.25-1.27,1.88-1.88,5.12-5.12,10.34-10.12,15.66-15.03,1.76-1.63,1.26-4.65.1-5.88-.58-.61-1.83-1.37-3.12-1.37h0Z"/>
    </g>
  </g>
</svg>